HIERARCHY
ROOT Hips
{
	OFFSET -0.001795 -0.223333 0.028219
	CHANNELS 6 Xposition Yposition Zposition Zrotation Yrotation Xrotation 
	JOINT LeftUpLeg
	{
		OFFSET 0.069520 -0.091406 -0.006815
		CHANNELS 3 Zrotation Yrotation Xrotation
		JOINT LeftLeg
		{
			OFFSET 0.034277 -0.375199 -0.004496
			CHANNELS 3 Zrotation Yrotation Xrotation
			JOINT LeftFoot
			{
				OFFSET -0.013596 -0.397961 -0.043693
				CHANNELS 3 Zrotation Yrotation Xrotation
				JOINT LeftToe
				{
					OFFSET 0.026358 -0.055791 0.119288
					CHANNELS 3 Zrotation Yrotation Xrotation
					End Site
					{
						OFFSET 0.000000 0.000000 0.000000
					}
				}
			}
		}
	}
	JOINT RightUpLeg
	{
		OFFSET -0.067670 -0.090522 -0.004320
		CHANNELS 3 Zrotation Yrotation Xrotation
		JOINT RightLeg
		{
			OFFSET -0.038290 -0.382569 -0.008850
			CHANNELS 3 Zrotation Yrotation Xrotation
			JOINT RightFoot
			{
				OFFSET 0.015774 -0.398415 -0.042312
				CHANNELS 3 Zrotation Yrotation Xrotation
				JOINT RightToe
				{
					OFFSET -0.025372 -0.048144 0.123348
					CHANNELS 3 Zrotation Yrotation Xrotation
					End Site
					{
						OFFSET 0.000000 0.000000 0.000000
					}
				}
			}
		}
	}
	JOINT Spine
	{
		OFFSET -0.002533 0.108963 -0.026696
		CHANNELS 3 Zrotation Yrotation Xrotation
		JOINT Spine1
		{
			OFFSET 0.005487 0.135180 0.001092
			CHANNELS 3 Zrotation Yrotation Xrotation
			JOINT Spine2
			{
				OFFSET 0.001457 0.052922 0.025425
				CHANNELS 3 Zrotation Yrotation Xrotation
				JOINT Neck
				{
					OFFSET -0.002778 0.213870 -0.042857
					CHANNELS 3 Zrotation Yrotation Xrotation
					JOINT Head
					{
						OFFSET 0.005152 0.064970 0.051349
						CHANNELS 3 Zrotation Yrotation Xrotation
						End Site
						{
							OFFSET 0.000000 0.000000 0.000000
						}
					}
				}
				JOINT LeftShoulder
				{
					OFFSET 0.078845 0.121749 -0.034090
					CHANNELS 3 Zrotation Yrotation Xrotation
					JOINT LeftArm
					{
						OFFSET 0.090977 0.030469 -0.008868
						CHANNELS 3 Zrotation Yrotation Xrotation
						JOINT LeftForeArm
						{
							OFFSET 0.259612 -0.012772 -0.027456
							CHANNELS 3 Zrotation Yrotation Xrotation
							JOINT LeftHand
							{
								OFFSET 0.249234 0.008986 -0.001171
								CHANNELS 3 Zrotation Yrotation Xrotation
								End Site
								{
									OFFSET 0.000000 0.000000 0.000000
								}
							}
						}
					}
				}
				JOINT RightShoulder
				{
					OFFSET -0.081759 0.118833 -0.038615
					CHANNELS 3 Zrotation Yrotation Xrotation
					JOINT RightArm
					{
						OFFSET -0.096012 0.032551 -0.009143
						CHANNELS 3 Zrotation Yrotation Xrotation
						JOINT RightForeArm
						{
							OFFSET -0.253742 -0.013329 -0.021401
							CHANNELS 3 Zrotation Yrotation Xrotation
							JOINT RightHand
							{
								OFFSET -0.255298 0.007772 -0.005559
								CHANNELS 3 Zrotation Yrotation Xrotation
								End Site
								{
									OFFSET 0.000000 0.000000 0.000000
								}
							}
						}
					}
				}
			}
		}
	}
}
MOTION
Frames: 17
Frame Time: 0.050000
0.000000 0.936551 0.000000 -0.240952 -8.121580 7.455452 11.551126 -0.045368 -3.117454 -2.591799 0.397342 -5.874988 6.475949 14.416956 15.500688 0.000000 0.000000 0.000000 -10.387798 0.698871 -4.448317 3.911639 -0.336464 -2.187339 -7.466000 -19.270069 11.649578 0.000000 0.000000 0.000000 7.661332 0.170625 -3.408009 -6.029595 1.932078 -22.634322 -0.875917 10.524580 24.654761 5.955914 -1.539265 -20.764342 0.000000 0.000000 0.000000 -8.403231 0.359504 -1.167303 -30.508637 -7.661696 -2.959300 19.718039 -8.764576 -1.214580 0.000000 0.000000 0.000000 15.439650 -8.074741 -4.121984 34.494118 11.412437 -2.220690 -15.695024 16.485846 -0.983388 0.000000 0.000000 0.000000 
0.000567 0.934794 -0.000025 -0.575525 -8.960816 7.957610 11.851254 -0.031350 -2.101911 -1.967841 0.399047 -7.621777 6.453810 14.340003 16.820107 0.000000 0.000000 0.000000 -10.021392 0.735356 -5.489175 3.269800 -0.283780 -1.692417 -7.955909 -20.285478 13.103782 0.000000 0.000000 0.000000 8.191643 0.172820 -3.432583 -6.171705 1.928272 -23.744363 -0.913401 12.411323 24.759095 4.997781 -0.651361 -21.187688 0.000000 0.000000 0.000000 -9.347937 1.129631 -1.795953 -33.729642 -8.413395 -3.021624 17.826137 -10.583853 -1.322520 0.000000 0.000000 0.000000 18.172291 -9.463517 -4.875271 37.021521 11.720179 -2.347218 -14.255403 17.435410 -0.804730 0.000000 0.000000 0.000000 
0.001072 0.933946 -0.000501 -0.175562 -8.836607 7.145099 11.622860 -0.017346 -2.423956 -1.952313 0.331907 -4.955279 6.605005 14.551823 15.833244 0.000000 0.000000 0.000000 -10.840188 0.734137 -5.235467 3.851468 -0.321229 -1.204348 -7.741731 -19.834628 12.116907 0.000000 0.000000 0.000000 8.324725 0.126249 -2.886078 -6.460214 2.010654 -23.498810 -1.544536 11.826153 25.217325 6.651666 -1.658013 -22.129404 0.000000 0.000000 0.000000 -11.135094 0.353575 -1.633923 -37.031334 -6.651926 -3.819747 19.145013 -12.162321 -1.610177 0.000000 0.000000 0.000000 19.925242 -7.895791 -4.223350 39.297002 11.578561 -2.488406 -13.725836 17.931336 -0.788962 0.000000 0.000000 0.000000 
0.001446 0.934047 -0.000997 0.055235 -9.001669 7.240605 12.061087 -0.001190 -2.366823 -2.213179 0.365709 -5.503140 6.518358 14.421372 16.385750 0.000000 0.000000 0.000000 -11.016431 0.748271 -5.421897 3.596240 -0.300580 -1.014450 -8.240330 -20.744581 13.075766 0.000000 0.000000 0.000000 7.982980 0.164138 -3.228445 -6.807109 2.096701 -23.645670 -1.459297 11.201052 25.186823 5.698865 -1.199113 -21.985228 0.000000 0.000000 0.000000 -13.096336 1.096746 -2.148518 -41.550510 -5.910477 -4.498290 20.018220 -14.450545 -1.940661 0.000000 0.000000 0.000000 20.934211 -7.694962 -4.396719 43.482111 11.758729 -2.423943 -12.867809 18.814097 -0.731546 0.000000 0.000000 0.000000 
0.001776 0.934408 -0.001650 0.268102 -8.886545 7.074379 11.697086 -0.006221 -2.774120 -2.191872 0.345993 -4.623642 6.151233 13.856519 15.873354 0.000000 0.000000 0.000000 -11.008433 0.740861 -5.573758 2.989572 -0.255547 -0.754533 -8.187837 -20.675994 13.315498 0.000000 0.000000 0.000000 7.482602 0.127181 -2.913220 -6.195434 1.948497 -23.457361 -1.832177 11.058755 24.682941 6.021290 -1.339490 -22.449221 0.000000 0.000000 0.000000 -14.620670 0.795991 -2.232892 -45.324227 -4.793137 -5.226630 19.681573 -16.020485 -2.079502 0.000000 0.000000 0.000000 21.875838 -7.527331 -4.411617 46.837061 10.961180 -2.704442 -11.826130 20.069707 -0.630456 0.000000 0.000000 0.000000 
0.002011 0.934886 -0.002512 0.215198 -8.876318 6.988755 11.664915 -0.002755 -2.971359 -1.947023 0.322091 -4.507013 6.546466 14.478388 16.489317 0.000000 0.000000 0.000000 -11.053813 0.740272 -5.729199 2.732013 -0.234350 -0.593314 -7.839099 -20.117973 13.374337 0.000000 0.000000 0.000000 7.371327 0.100611 -2.665903 -6.326523 1.985042 -23.247414 -1.969660 10.157696 24.433991 6.178989 -1.432380 -23.547518 0.000000 0.000000 0.000000 -15.916560 0.995608 -2.345174 -48.487472 -4.871000 -5.549182 18.852182 -16.268233 -1.906151 0.000000 0.000000 0.000000 21.986876 -6.654353 -4.151847 50.304913 10.979116 -2.629498 -9.682055 19.989464 -0.359601 0.000000 0.000000 0.000000 
0.001996 0.935487 -0.003460 0.177741 -9.036342 6.832130 11.703695 0.010348 -2.960830 -2.071455 0.332968 -4.461215 6.591596 14.532826 16.642070 0.000000 0.000000 0.000000 -10.701392 0.728755 -5.414867 2.320918 -0.208949 -0.929898 -7.746715 -20.003883 13.738812 0.000000 0.000000 0.000000 7.274444 0.057912 -2.238577 -6.202339 1.953116 -23.143621 -2.113734 9.926862 24.167284 6.277075 -1.495421 -23.903237 0.000000 0.000000 0.000000 -17.322639 0.263188 -2.090242 -50.734232 -4.473962 -5.928030 17.516765 -16.607023 -1.722805 0.000000 0.000000 0.000000 22.813727 -5.834816 -3.837684 52.332095 10.092381 -2.996045 -7.407697 20.541256 -0.055719 0.000000 0.000000 0.000000 
0.001824 0.936060 -0.004224 -0.005920 -9.190209 7.114066 11.667654 0.012049 -3.312117 -1.837593 0.311327 -4.409452 6.492213 14.362881 16.780718 0.000000 0.000000 0.000000 -10.285255 0.731920 -5.766739 2.040084 -0.185778 -0.853928 -7.537753 -19.651334 13.323469 0.000000 0.000000 0.000000 7.348900 0.069086 -2.379209 -6.139860 1.932740 -23.089982 -2.252358 9.815827 24.297021 6.414095 -1.544993 -24.448257 0.000000 0.000000 0.000000 -17.934024 0.183522 -2.067177 -52.535051 -4.614973 -6.092915 15.600412 -16.857406 -1.451125 0.000000 0.000000 0.000000 22.978684 -5.456674 -3.678076 54.968819 9.804221 -3.161279 -5.426021 20.675601 0.245636 0.000000 0.000000 0.000000 
0.001514 0.936584 -0.004869 -0.121535 -9.061251 7.117663 11.954335 0.024090 -3.572834 -2.048870 0.328022 -4.322825 6.355335 14.176578 16.878924 0.000000 0.000000 0.000000 -9.931829 0.717778 -5.671541 1.914792 -0.176677 -0.835527 -7.739504 -19.982109 13.443737 0.000000 0.000000 0.000000 7.308914 0.059961 -2.299822 -6.229687 1.956695 -23.141484 -2.158097 9.550155 24.296738 6.173231 -1.454092 -24.290811 0.000000 0.000000 0.000000 -18.032314 0.074619 -1.977529 -53.900379 -4.803630 -6.163170 13.765571 -17.655363 -1.240731 0.000000 0.000000 0.000000 23.137912 -5.214490 -3.602870 56.708494 9.064696 -3.509694 -4.145710 20.526133 0.433087 0.000000 0.000000 0.000000 
0.001092 0.936813 -0.005387 -0.406084 -8.953229 7.148604 12.215690 0.034127 -3.664313 -1.994688 0.325997 -4.487071 6.406801 14.265820 16.925909 0.000000 0.000000 0.000000 -9.682517 0.710845 -5.782046 2.069326 -0.186400 -0.734152 -7.670113 -19.847340 13.209980 0.000000 0.000000 0.000000 7.480495 0.077037 -2.448255 -6.434203 2.009847 -23.040082 -2.030666 9.594960 24.438597 6.249356 -1.523321 -24.016528 0.000000 0.000000 0.000000 -17.956699 -0.303128 -1.785001 -54.542347 -5.041038 -6.146968 11.945895 -18.568163 -1.032764 0.000000 0.000000 0.000000 23.327968 -5.064901 -3.487563 58.206835 8.718385 -3.726792 -2.923074 20.140422 0.614421 0.000000 0.000000 0.000000 
0.000806 0.936506 -0.005789 -0.469300 -9.179787 7.092707 12.324471 0.048120 -3.620898 -2.077369 0.335311 -4.539313 6.568259 14.492722 17.292369 0.000000 0.000000 0.000000 -9.669895 0.711524 -5.602029 2.066999 -0.184619 -0.705595 -7.739630 -19.995145 13.498057 0.000000 0.000000 0.000000 7.484674 0.066342 -2.332247 -6.447747 2.010313 -23.062589 -2.019830 9.686187 24.305502 6.169894 -1.504059 -23.820934 0.000000 0.000000 0.000000 -17.694571 -0.434695 -1.675613 -54.822534 -5.193611 -6.101603 10.585185 -19.669217 -0.877294 0.000000 0.000000 0.000000 23.202836 -5.045073 -3.483622 59.184704 8.328083 -3.909511 -2.444141 20.124764 0.685518 0.000000 0.000000 0.000000 
0.000583 0.935801 -0.006194 -0.689482 -9.350009 7.153997 12.476718 0.062921 -3.725924 -1.909531 0.317932 -4.398680 6.807010 14.830014 17.599157 0.000000 0.000000 0.000000 -9.672993 0.716804 -5.602164 2.390083 -0.203525 -0.492697 -7.841740 -20.171899 13.510394 0.000000 0.000000 0.000000 7.491574 0.045404 -2.147979 -6.396560 1.987908 -23.353477 -1.821853 9.600195 24.237791 6.063611 -1.525055 -23.396544 0.000000 0.000000 0.000000 -17.504311 -0.383448 -1.633975 -54.739812 -5.296108 -6.045405 9.243492 -20.568335 -0.683673 0.000000 0.000000 0.000000 22.844556 -5.321450 -3.680426 59.982714 8.059466 -4.028899 -2.233059 20.238552 0.720574 0.000000 0.000000 0.000000 
0.000451 0.935280 -0.006689 -0.759560 -9.521111 7.163090 12.571662 0.077268 -3.858003 -2.012798 0.327570 -4.383765 6.891396 14.923196 17.293846 0.000000 0.000000 0.000000 -9.512557 0.715287 -5.530332 2.314537 -0.197840 -0.545229 -8.059738 -20.558858 13.855188 0.000000 0.000000 0.000000 7.343827 0.055157 -2.223468 -6.277778 1.955463 -23.375609 -1.720616 9.249889 24.198196 5.923138 -1.552931 -23.079324 0.000000 0.000000 0.000000 -17.211802 -0.341185 -1.515160 -54.650547 -5.831881 -5.804844 8.592677 -20.535316 -0.550765 0.000000 0.000000 0.000000 22.556401 -4.980911 -3.584492 60.288844 8.164043 -3.957190 -2.376781 19.643298 0.653864 0.000000 0.000000 0.000000 
0.000396 0.934722 -0.007439 -0.914429 -9.755226 6.975630 12.948331 0.112433 -3.900858 -2.306863 0.352632 -4.230580 7.031430 15.106925 17.514124 0.000000 0.000000 0.000000 -9.486377 0.714043 -5.445680 2.481887 -0.207847 -0.469064 -8.080669 -20.607386 13.863899 0.000000 0.000000 0.000000 7.350055 0.040497 -2.042684 -6.185955 1.928387 -23.366114 -1.594470 9.296497 24.238912 5.900858 -1.618177 -22.586594 0.000000 0.000000 0.000000 -16.905504 -0.463324 -1.392471 -54.421561 -6.222542 -5.621746 7.920855 -20.750249 -0.439317 0.000000 0.000000 0.000000 22.592042 -5.165311 -3.727428 60.608227 8.390956 -3.852838 -2.525443 19.631541 0.633297 0.000000 0.000000 0.000000 
0.000661 0.934294 -0.008441 -1.078426 -10.284724 6.971683 13.269071 0.152994 -3.956305 -2.491857 0.370084 -4.089364 7.275794 15.398789 17.278075 0.000000 0.000000 0.000000 -9.582642 0.729063 -5.427040 2.712513 -0.223657 -0.592547 -7.970872 -20.455460 13.770512 0.000000 0.000000 0.000000 7.385252 0.027868 -1.905942 -6.123750 1.902581 -23.526003 -1.405511 9.260953 24.302368 5.961109 -1.711684 -22.600018 0.000000 0.000000 0.000000 -16.581998 -0.366985 -1.319553 -54.253317 -6.572451 -5.466908 7.941022 -20.749132 -0.424681 0.000000 0.000000 0.000000 22.233597 -4.890866 -3.634262 60.704094 8.671416 -3.704733 -2.836348 19.268905 0.560325 0.000000 0.000000 0.000000 
0.001324 0.933246 -0.009552 -1.137525 -10.226083 6.837257 13.915775 0.199769 -4.213792 -3.174491 0.433793 -3.880027 7.447034 15.661161 17.365274 0.000000 0.000000 0.000000 -9.834287 0.733672 -5.488973 2.935679 -0.236139 -0.314721 -8.148059 -20.734054 13.760295 0.000000 0.000000 0.000000 7.176825 0.018583 -1.797229 -6.104735 1.899677 -23.461375 -1.266986 9.079401 24.361091 6.256316 -2.051625 -21.584988 0.000000 0.000000 0.000000 -16.067408 -0.424674 -1.205893 -54.301798 -6.828950 -5.369078 8.415028 -21.108168 -0.507542 0.000000 0.000000 0.000000 21.927112 -4.954817 -3.677355 60.285916 8.793315 -3.633388 -2.543487 19.494815 0.603186 0.000000 0.000000 0.000000 
0.002493 0.932128 -0.010504 -1.078712 -10.591483 6.599901 14.171663 0.234158 -4.106246 -3.400805 0.459052 -3.898572 7.497641 15.697803 17.259283 0.000000 0.000000 0.000000 -10.342464 0.752419 -5.363461 3.053287 -0.241832 -0.251191 -7.961330 -20.473892 14.027451 0.000000 0.000000 0.000000 7.255021 0.001987 -1.592897 -6.383686 1.964695 -23.512086 -1.085859 9.069312 24.581945 6.245255 -2.161488 -21.025011 0.000000 0.000000 0.000000 -15.919138 -0.199525 -1.247011 -54.070390 -7.037962 -5.287953 8.678278 -21.168765 -0.539369 0.000000 0.000000 0.000000 21.589508 -4.727675 -3.566719 60.096027 8.861282 -3.618992 -2.804703 19.884712 0.571924 0.000000 0.000000 0.000000 
